<mxfile host="Electron" modified="2025-05-17T16:48:50.292Z" agent="Mozilla/5.0 (Windows NT 10.0; Win64; x64) AppleWebKit/537.36 (KHTML, like Gecko) draw.io/24.0.4 Chrome/120.0.6099.109 Electron/28.1.0 Safari/537.36" etag="3k6Otfr9wSsmXc5599i0" version="24.0.4" type="device">
  <diagram id="C5RBs43oDa-KdzZeNtuy" name="Page-1">
    <mxGraphModel dx="1420" dy="822" grid="1" gridSize="10" guides="1" tooltips="1" connect="1" arrows="1" fold="1" page="1" pageScale="1" pageWidth="827" pageHeight="1169" math="0" shadow="0">
      <root>
        <mxCell id="WIyWlLk6GJQsqaUBKTNV-0" />
        <mxCell id="WIyWlLk6GJQsqaUBKTNV-1" parent="WIyWlLk6GJQsqaUBKTNV-0" />
        <mxCell id="WIyWlLk6GJQsqaUBKTNV-2" value="" style="rounded=0;html=1;jettySize=auto;orthogonalLoop=1;fontSize=11;endArrow=block;endFill=0;endSize=8;strokeWidth=1;shadow=0;labelBackgroundColor=none;edgeStyle=orthogonalEdgeStyle;entryX=0.5;entryY=0;entryDx=0;entryDy=0;" parent="WIyWlLk6GJQsqaUBKTNV-1" source="WIyWlLk6GJQsqaUBKTNV-3" target="BUXnFc8eRyvEGSGrbdCS-0" edge="1">
          <mxGeometry relative="1" as="geometry">
            <mxPoint x="220" y="170" as="targetPoint" />
          </mxGeometry>
        </mxCell>
        <mxCell id="WIyWlLk6GJQsqaUBKTNV-3" value="Seleccionar tabla/vista" style="rounded=1;whiteSpace=wrap;html=1;fontSize=12;glass=0;strokeWidth=1;shadow=0;" parent="WIyWlLk6GJQsqaUBKTNV-1" vertex="1">
          <mxGeometry x="170" y="150" width="120" height="40" as="geometry" />
        </mxCell>
        <mxCell id="BUXnFc8eRyvEGSGrbdCS-0" value="Cargar tabla/vista" style="rounded=1;whiteSpace=wrap;html=1;fontSize=12;glass=0;strokeWidth=1;shadow=0;" vertex="1" parent="WIyWlLk6GJQsqaUBKTNV-1">
          <mxGeometry x="170" y="220" width="120" height="40" as="geometry" />
        </mxCell>
        <mxCell id="BUXnFc8eRyvEGSGrbdCS-1" value="Modificar BBDD" style="shape=note;whiteSpace=wrap;html=1;backgroundOutline=1;darkOpacity=0.05;align=center;size=17;" vertex="1" parent="WIyWlLk6GJQsqaUBKTNV-1">
          <mxGeometry x="30" y="50" width="100" height="50" as="geometry" />
        </mxCell>
        <mxCell id="BUXnFc8eRyvEGSGrbdCS-2" value="Desplegar menú" style="rounded=1;whiteSpace=wrap;html=1;fontSize=12;glass=0;strokeWidth=1;shadow=0;" vertex="1" parent="WIyWlLk6GJQsqaUBKTNV-1">
          <mxGeometry x="170" y="80" width="120" height="40" as="geometry" />
        </mxCell>
        <mxCell id="BUXnFc8eRyvEGSGrbdCS-4" value="" style="rounded=0;html=1;jettySize=auto;orthogonalLoop=1;fontSize=11;endArrow=block;endFill=0;endSize=8;strokeWidth=1;shadow=0;labelBackgroundColor=none;edgeStyle=orthogonalEdgeStyle;exitX=0.5;exitY=1;exitDx=0;exitDy=0;" edge="1" parent="WIyWlLk6GJQsqaUBKTNV-1" source="BUXnFc8eRyvEGSGrbdCS-2" target="WIyWlLk6GJQsqaUBKTNV-3">
          <mxGeometry relative="1" as="geometry">
            <mxPoint x="230" y="230" as="sourcePoint" />
            <mxPoint x="230" y="290" as="targetPoint" />
          </mxGeometry>
        </mxCell>
        <mxCell id="BUXnFc8eRyvEGSGrbdCS-5" value="Seleccionar fila" style="rounded=1;whiteSpace=wrap;html=1;fontSize=12;glass=0;strokeWidth=1;shadow=0;" vertex="1" parent="WIyWlLk6GJQsqaUBKTNV-1">
          <mxGeometry x="170" y="440" width="120" height="40" as="geometry" />
        </mxCell>
        <mxCell id="BUXnFc8eRyvEGSGrbdCS-6" value="Opcion" style="rhombus;whiteSpace=wrap;html=1;" vertex="1" parent="WIyWlLk6GJQsqaUBKTNV-1">
          <mxGeometry x="190" y="310" width="80" height="80" as="geometry" />
        </mxCell>
        <mxCell id="BUXnFc8eRyvEGSGrbdCS-8" value="" style="rounded=0;html=1;jettySize=auto;orthogonalLoop=1;fontSize=11;endArrow=block;endFill=0;endSize=8;strokeWidth=1;shadow=0;labelBackgroundColor=none;edgeStyle=orthogonalEdgeStyle;exitX=1;exitY=0.5;exitDx=0;exitDy=0;entryX=0;entryY=0.5;entryDx=0;entryDy=0;" edge="1" parent="WIyWlLk6GJQsqaUBKTNV-1" source="BUXnFc8eRyvEGSGrbdCS-6" target="BUXnFc8eRyvEGSGrbdCS-10">
          <mxGeometry relative="1" as="geometry">
            <mxPoint x="290" y="360" as="sourcePoint" />
            <mxPoint x="480" y="310" as="targetPoint" />
          </mxGeometry>
        </mxCell>
        <mxCell id="BUXnFc8eRyvEGSGrbdCS-9" value="Añadir datos" style="edgeLabel;html=1;align=center;verticalAlign=middle;resizable=0;points=[];" vertex="1" connectable="0" parent="BUXnFc8eRyvEGSGrbdCS-8">
          <mxGeometry x="0.0145" relative="1" as="geometry">
            <mxPoint x="-12" y="-10" as="offset" />
          </mxGeometry>
        </mxCell>
        <mxCell id="BUXnFc8eRyvEGSGrbdCS-10" value="Pulsar Añadir dato" style="rounded=1;whiteSpace=wrap;html=1;fontSize=12;glass=0;strokeWidth=1;shadow=0;" vertex="1" parent="WIyWlLk6GJQsqaUBKTNV-1">
          <mxGeometry x="360" y="330" width="120" height="40" as="geometry" />
        </mxCell>
        <mxCell id="BUXnFc8eRyvEGSGrbdCS-11" value="Introducir dato" style="rounded=1;whiteSpace=wrap;html=1;fontSize=12;glass=0;strokeWidth=1;shadow=0;" vertex="1" parent="WIyWlLk6GJQsqaUBKTNV-1">
          <mxGeometry x="510" y="330" width="120" height="40" as="geometry" />
        </mxCell>
        <mxCell id="BUXnFc8eRyvEGSGrbdCS-12" value="Pulsar guardar" style="rounded=1;whiteSpace=wrap;html=1;fontSize=12;glass=0;strokeWidth=1;shadow=0;" vertex="1" parent="WIyWlLk6GJQsqaUBKTNV-1">
          <mxGeometry x="660" y="330" width="120" height="40" as="geometry" />
        </mxCell>
        <mxCell id="BUXnFc8eRyvEGSGrbdCS-13" value="" style="rounded=0;html=1;jettySize=auto;orthogonalLoop=1;fontSize=11;endArrow=block;endFill=0;endSize=8;strokeWidth=1;shadow=0;labelBackgroundColor=none;edgeStyle=orthogonalEdgeStyle;exitX=1;exitY=0.5;exitDx=0;exitDy=0;entryX=0;entryY=0.5;entryDx=0;entryDy=0;" edge="1" parent="WIyWlLk6GJQsqaUBKTNV-1" source="BUXnFc8eRyvEGSGrbdCS-10" target="BUXnFc8eRyvEGSGrbdCS-11">
          <mxGeometry relative="1" as="geometry">
            <mxPoint x="280" y="360" as="sourcePoint" />
            <mxPoint x="370" y="360" as="targetPoint" />
          </mxGeometry>
        </mxCell>
        <mxCell id="BUXnFc8eRyvEGSGrbdCS-15" value="" style="rounded=0;html=1;jettySize=auto;orthogonalLoop=1;fontSize=11;endArrow=block;endFill=0;endSize=8;strokeWidth=1;shadow=0;labelBackgroundColor=none;edgeStyle=orthogonalEdgeStyle;exitX=1;exitY=0.5;exitDx=0;exitDy=0;entryX=0;entryY=0.5;entryDx=0;entryDy=0;" edge="1" parent="WIyWlLk6GJQsqaUBKTNV-1" source="BUXnFc8eRyvEGSGrbdCS-11" target="BUXnFc8eRyvEGSGrbdCS-12">
          <mxGeometry relative="1" as="geometry">
            <mxPoint x="490" y="360" as="sourcePoint" />
            <mxPoint x="520" y="360" as="targetPoint" />
          </mxGeometry>
        </mxCell>
        <mxCell id="BUXnFc8eRyvEGSGrbdCS-16" value="Borrar fila" style="rounded=1;whiteSpace=wrap;html=1;fontSize=12;glass=0;strokeWidth=1;shadow=0;" vertex="1" parent="WIyWlLk6GJQsqaUBKTNV-1">
          <mxGeometry x="170" y="520" width="120" height="40" as="geometry" />
        </mxCell>
        <mxCell id="BUXnFc8eRyvEGSGrbdCS-17" value="Pulsar guardar" style="rounded=1;whiteSpace=wrap;html=1;fontSize=12;glass=0;strokeWidth=1;shadow=0;" vertex="1" parent="WIyWlLk6GJQsqaUBKTNV-1">
          <mxGeometry x="170" y="600" width="120" height="40" as="geometry" />
        </mxCell>
        <mxCell id="BUXnFc8eRyvEGSGrbdCS-18" value="" style="rounded=0;html=1;jettySize=auto;orthogonalLoop=1;fontSize=11;endArrow=block;endFill=0;endSize=8;strokeWidth=1;shadow=0;labelBackgroundColor=none;edgeStyle=orthogonalEdgeStyle;exitX=0.5;exitY=1;exitDx=0;exitDy=0;entryX=0.5;entryY=0;entryDx=0;entryDy=0;" edge="1" parent="WIyWlLk6GJQsqaUBKTNV-1" source="BUXnFc8eRyvEGSGrbdCS-6" target="BUXnFc8eRyvEGSGrbdCS-5">
          <mxGeometry relative="1" as="geometry">
            <mxPoint x="280" y="360" as="sourcePoint" />
            <mxPoint x="370" y="360" as="targetPoint" />
          </mxGeometry>
        </mxCell>
        <mxCell id="BUXnFc8eRyvEGSGrbdCS-19" value="Borrar datos" style="edgeLabel;html=1;align=center;verticalAlign=middle;resizable=0;points=[];" vertex="1" connectable="0" parent="BUXnFc8eRyvEGSGrbdCS-18">
          <mxGeometry x="0.0145" relative="1" as="geometry">
            <mxPoint y="-10" as="offset" />
          </mxGeometry>
        </mxCell>
        <mxCell id="BUXnFc8eRyvEGSGrbdCS-20" value="" style="rounded=0;html=1;jettySize=auto;orthogonalLoop=1;fontSize=11;endArrow=block;endFill=0;endSize=8;strokeWidth=1;shadow=0;labelBackgroundColor=none;edgeStyle=orthogonalEdgeStyle;entryX=0.5;entryY=0;entryDx=0;entryDy=0;exitX=0.5;exitY=1;exitDx=0;exitDy=0;" edge="1" parent="WIyWlLk6GJQsqaUBKTNV-1" source="BUXnFc8eRyvEGSGrbdCS-5" target="BUXnFc8eRyvEGSGrbdCS-16">
          <mxGeometry relative="1" as="geometry">
            <mxPoint x="230" y="180" as="sourcePoint" />
            <mxPoint x="230" y="230" as="targetPoint" />
          </mxGeometry>
        </mxCell>
        <mxCell id="BUXnFc8eRyvEGSGrbdCS-21" value="" style="rounded=0;html=1;jettySize=auto;orthogonalLoop=1;fontSize=11;endArrow=block;endFill=0;endSize=8;strokeWidth=1;shadow=0;labelBackgroundColor=none;edgeStyle=orthogonalEdgeStyle;entryX=0.5;entryY=0;entryDx=0;entryDy=0;exitX=0.5;exitY=1;exitDx=0;exitDy=0;" edge="1" parent="WIyWlLk6GJQsqaUBKTNV-1" source="BUXnFc8eRyvEGSGrbdCS-16" target="BUXnFc8eRyvEGSGrbdCS-17">
          <mxGeometry relative="1" as="geometry">
            <mxPoint x="240" y="490" as="sourcePoint" />
            <mxPoint x="240" y="530" as="targetPoint" />
          </mxGeometry>
        </mxCell>
        <mxCell id="BUXnFc8eRyvEGSGrbdCS-22" value="" style="rounded=0;html=1;jettySize=auto;orthogonalLoop=1;fontSize=11;endArrow=block;endFill=0;endSize=8;strokeWidth=1;shadow=0;labelBackgroundColor=none;edgeStyle=orthogonalEdgeStyle;entryX=0.5;entryY=0;entryDx=0;entryDy=0;exitX=0.5;exitY=1;exitDx=0;exitDy=0;" edge="1" parent="WIyWlLk6GJQsqaUBKTNV-1" source="BUXnFc8eRyvEGSGrbdCS-0" target="BUXnFc8eRyvEGSGrbdCS-6">
          <mxGeometry relative="1" as="geometry">
            <mxPoint x="230" y="180" as="sourcePoint" />
            <mxPoint x="230" y="230" as="targetPoint" />
          </mxGeometry>
        </mxCell>
        <mxCell id="BUXnFc8eRyvEGSGrbdCS-23" value="" style="rounded=0;html=1;jettySize=auto;orthogonalLoop=1;fontSize=11;endArrow=block;endFill=0;endSize=8;strokeWidth=1;shadow=0;labelBackgroundColor=none;edgeStyle=orthogonalEdgeStyle;exitX=1;exitY=1;exitDx=0;exitDy=0;entryX=0;entryY=0.5;entryDx=0;entryDy=0;" edge="1" parent="WIyWlLk6GJQsqaUBKTNV-1" source="BUXnFc8eRyvEGSGrbdCS-6" target="BUXnFc8eRyvEGSGrbdCS-25">
          <mxGeometry relative="1" as="geometry">
            <mxPoint x="240" y="390" as="sourcePoint" />
            <mxPoint x="350" y="440" as="targetPoint" />
            <Array as="points">
              <mxPoint x="250" y="390" />
              <mxPoint x="351" y="390" />
              <mxPoint x="351" y="440" />
            </Array>
          </mxGeometry>
        </mxCell>
        <mxCell id="BUXnFc8eRyvEGSGrbdCS-24" value="Modificar datos" style="edgeLabel;html=1;align=center;verticalAlign=middle;resizable=0;points=[];" vertex="1" connectable="0" parent="BUXnFc8eRyvEGSGrbdCS-23">
          <mxGeometry x="0.0145" relative="1" as="geometry">
            <mxPoint x="1" y="-10" as="offset" />
          </mxGeometry>
        </mxCell>
        <mxCell id="BUXnFc8eRyvEGSGrbdCS-25" value="Seleccionar casilla" style="rounded=1;whiteSpace=wrap;html=1;fontSize=12;glass=0;strokeWidth=1;shadow=0;" vertex="1" parent="WIyWlLk6GJQsqaUBKTNV-1">
          <mxGeometry x="380" y="420" width="120" height="40" as="geometry" />
        </mxCell>
        <mxCell id="BUXnFc8eRyvEGSGrbdCS-26" value="Modificar campo" style="rounded=1;whiteSpace=wrap;html=1;fontSize=12;glass=0;strokeWidth=1;shadow=0;" vertex="1" parent="WIyWlLk6GJQsqaUBKTNV-1">
          <mxGeometry x="510" y="490" width="120" height="40" as="geometry" />
        </mxCell>
        <mxCell id="BUXnFc8eRyvEGSGrbdCS-27" value="Pulsar guardar" style="rounded=1;whiteSpace=wrap;html=1;fontSize=12;glass=0;strokeWidth=1;shadow=0;" vertex="1" parent="WIyWlLk6GJQsqaUBKTNV-1">
          <mxGeometry x="510" y="600" width="120" height="40" as="geometry" />
        </mxCell>
        <mxCell id="BUXnFc8eRyvEGSGrbdCS-31" value="" style="rounded=0;html=1;jettySize=auto;orthogonalLoop=1;fontSize=11;endArrow=block;endFill=0;endSize=8;strokeWidth=1;shadow=0;labelBackgroundColor=none;edgeStyle=orthogonalEdgeStyle;exitX=1;exitY=0.5;exitDx=0;exitDy=0;entryX=0.5;entryY=0;entryDx=0;entryDy=0;" edge="1" parent="WIyWlLk6GJQsqaUBKTNV-1" source="BUXnFc8eRyvEGSGrbdCS-25" target="BUXnFc8eRyvEGSGrbdCS-26">
          <mxGeometry relative="1" as="geometry">
            <mxPoint x="460" y="500" as="sourcePoint" />
            <mxPoint x="530" y="550" as="targetPoint" />
            <Array as="points">
              <mxPoint x="500" y="430" />
              <mxPoint x="570" y="430" />
            </Array>
          </mxGeometry>
        </mxCell>
        <mxCell id="BUXnFc8eRyvEGSGrbdCS-33" value="" style="rounded=0;html=1;jettySize=auto;orthogonalLoop=1;fontSize=11;endArrow=block;endFill=0;endSize=8;strokeWidth=1;shadow=0;labelBackgroundColor=none;edgeStyle=orthogonalEdgeStyle;entryX=0.5;entryY=0;entryDx=0;entryDy=0;exitX=0.5;exitY=1;exitDx=0;exitDy=0;" edge="1" parent="WIyWlLk6GJQsqaUBKTNV-1" source="BUXnFc8eRyvEGSGrbdCS-26" target="BUXnFc8eRyvEGSGrbdCS-27">
          <mxGeometry relative="1" as="geometry">
            <mxPoint x="240" y="190" as="sourcePoint" />
            <mxPoint x="240" y="230" as="targetPoint" />
          </mxGeometry>
        </mxCell>
        <mxCell id="BUXnFc8eRyvEGSGrbdCS-36" value="" style="ellipse;fillColor=strokeColor;html=1;" vertex="1" parent="WIyWlLk6GJQsqaUBKTNV-1">
          <mxGeometry x="215" y="10" width="30" height="30" as="geometry" />
        </mxCell>
        <mxCell id="BUXnFc8eRyvEGSGrbdCS-37" value="" style="ellipse;html=1;shape=endState;fillColor=strokeColor;" vertex="1" parent="WIyWlLk6GJQsqaUBKTNV-1">
          <mxGeometry x="555" y="690" width="30" height="30" as="geometry" />
        </mxCell>
        <mxCell id="BUXnFc8eRyvEGSGrbdCS-38" value="" style="rounded=0;html=1;jettySize=auto;orthogonalLoop=1;fontSize=11;endArrow=block;endFill=0;endSize=8;strokeWidth=1;shadow=0;labelBackgroundColor=none;edgeStyle=orthogonalEdgeStyle;entryX=0;entryY=0.5;entryDx=0;entryDy=0;exitX=0.5;exitY=1;exitDx=0;exitDy=0;" edge="1" parent="WIyWlLk6GJQsqaUBKTNV-1" source="BUXnFc8eRyvEGSGrbdCS-17" target="BUXnFc8eRyvEGSGrbdCS-37">
          <mxGeometry relative="1" as="geometry">
            <mxPoint x="240" y="190" as="sourcePoint" />
            <mxPoint x="240" y="230" as="targetPoint" />
          </mxGeometry>
        </mxCell>
        <mxCell id="BUXnFc8eRyvEGSGrbdCS-39" value="" style="rounded=0;html=1;jettySize=auto;orthogonalLoop=1;fontSize=11;endArrow=block;endFill=0;endSize=8;strokeWidth=1;shadow=0;labelBackgroundColor=none;edgeStyle=orthogonalEdgeStyle;entryX=0.5;entryY=0;entryDx=0;entryDy=0;exitX=0.5;exitY=1;exitDx=0;exitDy=0;" edge="1" parent="WIyWlLk6GJQsqaUBKTNV-1" source="BUXnFc8eRyvEGSGrbdCS-27" target="BUXnFc8eRyvEGSGrbdCS-37">
          <mxGeometry relative="1" as="geometry">
            <mxPoint x="240" y="650" as="sourcePoint" />
            <mxPoint x="530" y="715" as="targetPoint" />
          </mxGeometry>
        </mxCell>
        <mxCell id="BUXnFc8eRyvEGSGrbdCS-40" value="" style="rounded=0;html=1;jettySize=auto;orthogonalLoop=1;fontSize=11;endArrow=block;endFill=0;endSize=8;strokeWidth=1;shadow=0;labelBackgroundColor=none;edgeStyle=orthogonalEdgeStyle;entryX=1;entryY=0.5;entryDx=0;entryDy=0;exitX=0.5;exitY=1;exitDx=0;exitDy=0;" edge="1" parent="WIyWlLk6GJQsqaUBKTNV-1" source="BUXnFc8eRyvEGSGrbdCS-12" target="BUXnFc8eRyvEGSGrbdCS-37">
          <mxGeometry relative="1" as="geometry">
            <mxPoint x="240" y="650" as="sourcePoint" />
            <mxPoint x="565" y="715" as="targetPoint" />
          </mxGeometry>
        </mxCell>
        <mxCell id="BUXnFc8eRyvEGSGrbdCS-41" value="" style="rounded=0;html=1;jettySize=auto;orthogonalLoop=1;fontSize=11;endArrow=block;endFill=0;endSize=8;strokeWidth=1;shadow=0;labelBackgroundColor=none;edgeStyle=orthogonalEdgeStyle;exitX=0.5;exitY=1;exitDx=0;exitDy=0;entryX=0.5;entryY=0;entryDx=0;entryDy=0;" edge="1" parent="WIyWlLk6GJQsqaUBKTNV-1" source="BUXnFc8eRyvEGSGrbdCS-36" target="BUXnFc8eRyvEGSGrbdCS-2">
          <mxGeometry relative="1" as="geometry">
            <mxPoint x="240" y="190" as="sourcePoint" />
            <mxPoint x="230" y="80" as="targetPoint" />
          </mxGeometry>
        </mxCell>
      </root>
    </mxGraphModel>
  </diagram>
</mxfile>
